<?xml version="1.0" encoding="UTF-8" standalone="no"?>
<svg width="529px" height="191px" viewBox="0 0 529 191" version="1.1" xmlns="http://www.w3.org/2000/svg" xmlns:xlink="http://www.w3.org/1999/xlink" xmlns:sketch="http://www.bohemiancoding.com/sketch/ns">
    <title>logo</title>
    <description>Created with Sketch (http://www.bohemiancoding.com/sketch)</description>
    <defs></defs>
    <g id="Page-1" stroke="none" stroke-width="1" fill="none" fill-rule="evenodd" sketch:type="MSPage">
        <g id="Rectangle-design" sketch:type="MSLayerGroup" transform="translate(3.000000, -49.000000)">
            <g id="Beaker" transform="translate(0.000000, 52.000000)" sketch:type="MSShapeGroup">
                <rect id="Rectangle-2" fill="#F54F36" x="7" y="110" width="139" height="65"></rect>
                <path d="M153,0 L153,164.874856 C153,175.449322 144.428332,184 133.854643,184 L19.1453571,184 C8.55378779,184 0,175.437381 0,164.874856 L0,0 L9.5625,0 L9.5625,162.483092 C9.5625,169.087571 14.8931724,174.441558 21.5018612,174.441558 L131.498139,174.441558 C138.092066,174.441558 143.4375,169.078746 143.4375,162.483092 L143.4375,0 L153,0 Z" id="Rectangle-1" stroke="#FFFFFF" stroke-width="3" fill="#FFFFFF"></path>
                <path d="M63,147 C70.1797021,147 76,141.179702 76,134 C76,126.820298 70.1797021,121 63,121 C55.8202979,121 50,126.820298 50,134 C50,141.179702 55.8202979,147 63,147 Z" id="Oval-1" fill="#000000"></path>
                <path d="M87,101 C94.1797021,101 100,95.1797021 100,88 C100,80.8202979 94.1797021,75 87,75 C79.8202979,75 74,80.8202979 74,88 C74,95.1797021 79.8202979,101 87,101 Z" id="Oval-2" fill="#F54F36"></path>
                <circle id="Oval-2-copy" fill="#F54F36" cx="55.5" cy="63.5" r="14.5"></circle>
                <path d="M91,62 C95.970563,62 100,57.970563 100,53 C100,48.029437 95.970563,44 91,44 C86.029437,44 82,48.029437 82,53 C82,57.970563 86.029437,62 91,62 Z" id="Oval-2-copy-2" fill="#F54F36"></path>
                <circle id="Oval-2-copy-3" fill="#F54F36" cx="68.5" cy="21.5" r="12.5"></circle>
            </g>
            <text id="LEVEL" sketch:type="MSTextLayer" font-family="League Gothic" font-size="105" font-weight="normal" fill="#FFFFFF">
                <tspan x="176" y="129">LEVEL</tspan>
            </text>
            <text id="UP" sketch:type="MSTextLayer" font-family="League Gothic" font-size="255" font-weight="normal" fill="#FFFFFF">
                <tspan x="346" y="238">UP</tspan>
            </text>
            <text id="LABS" sketch:type="MSTextLayer" font-family="League Gothic" font-size="120" font-weight="normal" fill="#FFFFFF">
                <tspan x="176" y="234">LABS</tspan>
            </text>
        </g>
    </g>
</svg>